<svg width="22" height="22" viewBox="0 0 22 22" fill="none" xmlns="http://www.w3.org/2000/svg">
<path d="M18.5225 20.9897H3.48787C1.98544 20.9897 0.82495 19.856 1.02182 18.3661L1.1358 17.497C1.34303 16.2969 2.44135 15.5416 3.63293 15.2829L10.9275 14C10.9275 14 11.0207 14 11.0725 14L18.3671 15.2829C19.5794 15.5623 20.657 16.2762 20.8642 17.497L20.9782 18.3765C21.175 19.8663 20.0146 21 18.5121 21L18.5225 20.9897Z" stroke="#B0B0B0" stroke-width="1.5" stroke-linecap="round" stroke-linejoin="round"/>
<path d="M16 6C16 8.76142 13.7614 11 11 11C8.23858 11 6 8.76142 6 6C6 3.23858 8.23858 1 11 1C13.7614 1 16 3.23858 16 6Z" stroke="#B0B0B0" stroke-width="1.5" stroke-linecap="round" stroke-linejoin="round"/>
</svg>
