<svg width="26" height="26" viewBox="0 0 26 26" fill="none" xmlns="http://www.w3.org/2000/svg">
<path d="M12.8012 0C9.3249 0 8.88863 0.0152002 7.52328 0.0773342C6.1606 0.139735 5.23045 0.35547 4.41658 0.672007C3.5747 0.998944 2.86056 1.43628 2.14909 2.14802C1.43708 2.8595 0.999744 3.57364 0.67174 4.41525C0.354404 5.22939 0.138401 6.1598 0.0770674 7.52194C0.0160002 8.88729 0 9.32383 0 12.8001C0 16.2764 0.0154668 16.7114 0.0773342 18.0767C0.140001 19.4394 0.355737 20.3695 0.672007 21.1834C0.99921 22.0253 1.43655 22.7394 2.14829 23.4509C2.8595 24.1629 3.57364 24.6013 4.41498 24.9283C5.22939 25.2448 6.1598 25.4605 7.52221 25.5229C8.88756 25.5851 9.32356 25.6003 12.7996 25.6003C16.2762 25.6003 16.7111 25.5851 18.0765 25.5229C19.4391 25.4605 20.3703 25.2448 21.1848 24.9283C22.0264 24.6013 22.7394 24.1629 23.4506 23.4509C24.1627 22.7394 24.6 22.0253 24.928 21.1837C25.2427 20.3695 25.4587 19.4391 25.5227 18.077C25.584 16.7116 25.6 16.2764 25.6 12.8001C25.6 9.32383 25.584 8.88756 25.5227 7.52221C25.4587 6.15953 25.2427 5.22939 24.928 4.41551C24.6 3.57364 24.1627 2.8595 23.4506 2.14802C22.7386 1.43601 22.0266 0.998677 21.184 0.672007C20.3679 0.35547 19.4373 0.139735 18.0746 0.0773342C16.7092 0.0152002 16.2746 0 12.7972 0H12.8012Z" fill="#B0B0B0"/>
<path fill-rule="evenodd" clip-rule="evenodd" d="M11.6529 2.30691C11.8759 2.30656 12.1157 2.30667 12.3746 2.30679L12.8012 2.30691C16.2188 2.30691 16.6239 2.31918 17.9735 2.38051C19.2215 2.43758 19.8989 2.64611 20.3501 2.82132C20.9474 3.05332 21.3733 3.33066 21.821 3.77866C22.269 4.22666 22.5463 4.65334 22.7789 5.25067C22.9541 5.70135 23.1629 6.37869 23.2197 7.6267C23.281 8.97605 23.2944 9.38138 23.2944 12.7974C23.2944 16.2135 23.281 16.6188 23.2197 17.9681C23.1626 19.2162 22.9541 19.8935 22.7789 20.3442C22.5469 20.9415 22.269 21.3668 21.821 21.8146C21.373 22.2626 20.9477 22.5399 20.3501 22.7719C19.8994 22.9479 19.2215 23.1559 17.9735 23.213C16.6242 23.2743 16.2188 23.2877 12.8012 23.2877C9.38328 23.2877 8.97821 23.2743 7.62886 23.213C6.38085 23.1554 5.70351 22.9469 5.25204 22.7717C4.6547 22.5397 4.22803 22.2623 3.78002 21.8143C3.33202 21.3663 3.05468 20.9407 2.82214 20.3431C2.64694 19.8924 2.43814 19.2151 2.38134 17.9671C2.32001 16.6177 2.30774 16.2124 2.30774 12.7942C2.30774 9.37605 2.32001 8.97285 2.38134 7.6235C2.43841 6.37549 2.64694 5.69815 2.82214 5.24694C3.05415 4.6496 3.33202 4.22293 3.78002 3.77493C4.22803 3.32692 4.6547 3.04959 5.25204 2.81705C5.70324 2.64105 6.38085 2.43305 7.62886 2.37571C8.80967 2.32238 9.26728 2.30638 11.6529 2.30371V2.30691ZM19.6338 4.43227C18.7858 4.43227 18.0978 5.11947 18.0978 5.96775C18.0978 6.81576 18.7858 7.50377 19.6338 7.50377C20.4818 7.50377 21.1698 6.81576 21.1698 5.96775C21.1698 5.11974 20.4818 4.43173 19.6338 4.43173V4.43227ZM6.22778 12.8004C6.22778 9.17027 9.17086 6.22709 12.8009 6.22695C16.4311 6.22695 19.3735 9.17018 19.3735 12.8004C19.3735 16.4305 16.4314 19.3724 12.8012 19.3724C9.17101 19.3724 6.22778 16.4305 6.22778 12.8004Z" fill="black"/>
<path d="M12.8012 8.5332C15.1575 8.5332 17.0679 10.4434 17.0679 12.7999C17.0679 15.1562 15.1575 17.0666 12.8012 17.0666C10.4446 17.0666 8.53448 15.1562 8.53448 12.7999C8.53448 10.4434 10.4446 8.5332 12.8012 8.5332Z" fill="black"/>
</svg>
