<svg width="28" height="23" viewBox="0 0 28 23" fill="none" xmlns="http://www.w3.org/2000/svg">
<path d="M0.414204 10.565C3.2198 9.01959 6.3516 7.72975 9.2778 6.43335C14.312 4.30995 19.3662 2.22335 24.4714 0.28075C25.4647 -0.0502303 27.2494 -0.37387 27.4244 1.09807C27.3285 3.18167 26.9343 5.25307 26.664 7.32447C25.9777 11.8797 25.1845 16.4193 24.411 20.9595C24.1445 22.4718 22.25 23.2547 21.0378 22.2869C18.1246 20.3191 15.189 18.3705 12.313 16.3571C11.3709 15.3998 12.2445 14.0251 13.0859 13.3415C15.4853 10.9769 18.0299 8.96785 20.3039 6.48105C20.9173 4.99983 19.1049 6.24815 18.507 6.63068C15.2222 8.89428 12.0178 11.2961 8.55464 13.2855C6.78564 14.2593 4.72384 13.4271 2.95564 12.8837C1.37026 12.2273 -0.952956 11.566 0.414044 10.5651L0.414204 10.565Z" fill="#54BDF9"/>
</svg>
